<svg width="644" height="669" viewBox="0 0 644 669" fill="none" xmlns="http://www.w3.org/2000/svg">
<g filter="url(#filter0_d_0_54)">
<g clip-path="url(#clip0_0_54)">
<rect x="44" y="15" width="1084.96" height="664.538" rx="8.47624" fill="white"/>
<rect x="44.0001" y="59.9247" width="1084.96" height="619.613" fill="white"/>
<g filter="url(#filter1_di_0_54)">
<path d="M44 23.4763C44 18.795 47.7949 15 52.4762 15H1120.48C1125.16 15 1128.96 18.7949 1128.96 23.4762V59.9241H44V23.4763Z" fill="white"/>
<g clip-path="url(#clip1_0_54)">
<path d="M173.91 42.962L168.331 37.5162C168.197 37.3825 168.127 37.2207 168.127 37.0448C168.127 36.8618 168.204 36.6859 168.338 36.5734L173.91 31.1205C174.03 31.0009 174.185 30.9305 174.368 30.9305C174.734 30.9305 175.008 31.212 175.008 31.5778C175.008 31.7467 174.938 31.9156 174.825 32.0352L169.703 37.0448L174.825 42.0544C174.938 42.174 175.008 42.3358 175.008 42.5117C175.008 42.8776 174.734 43.152 174.368 43.152C174.185 43.152 174.03 43.0816 173.91 42.962Z" fill="#737373"/>
<path d="M196.739 43.159C196.922 43.159 197.077 43.0886 197.196 42.969L202.776 37.5162C202.909 37.3825 202.98 37.2207 202.98 37.0448C202.98 36.8618 202.909 36.693 202.776 36.5734L197.203 31.1275C197.077 31.0009 196.922 30.9305 196.739 30.9305C196.373 30.9305 196.099 31.212 196.099 31.5778C196.099 31.7467 196.169 31.9156 196.282 32.0352L201.404 37.0448L196.282 42.0544C196.169 42.174 196.099 42.3358 196.099 42.5117C196.099 42.8776 196.373 43.159 196.739 43.159Z" fill="#BFBFBF"/>
</g>
<path d="M129.881 43.5317H142.053C143.531 43.5317 144.263 42.8 144.263 41.3506V32.7597C144.263 31.3103 143.531 30.5785 142.053 30.5785H129.881C128.411 30.5785 127.672 31.3032 127.672 32.7597V41.3506C127.672 42.807 128.411 43.5317 129.881 43.5317ZM129.895 42.3989C129.192 42.3989 128.805 42.026 128.805 41.2943V32.816C128.805 32.0842 129.192 31.7113 129.895 31.7113H133.033V42.3989H129.895ZM142.039 31.7113C142.736 31.7113 143.13 32.0842 143.13 32.816V41.2943C143.13 42.026 142.736 42.3989 142.039 42.3989H134.138V31.7113H142.039ZM131.675 34.3216C131.893 34.3216 132.076 34.1317 132.076 33.9276C132.076 33.7166 131.893 33.5336 131.675 33.5336H130.17C129.959 33.5336 129.769 33.7166 129.769 33.9276C129.769 34.1317 129.959 34.3216 130.17 34.3216H131.675ZM131.675 36.144C131.893 36.144 132.076 35.954 132.076 35.7429C132.076 35.5318 131.893 35.3559 131.675 35.3559H130.17C129.959 35.3559 129.769 35.5318 129.769 35.7429C129.769 35.954 129.959 36.144 130.17 36.144H131.675ZM131.675 37.9592C131.893 37.9592 132.076 37.7833 132.076 37.5722C132.076 37.3612 131.893 37.1782 131.675 37.1782H130.17C129.959 37.1782 129.769 37.3612 129.769 37.5722C129.769 37.7833 129.959 37.9592 130.17 37.9592H131.675Z" fill="#737373"/>
<g filter="url(#filter2_i_0_54)">
<path fill-rule="evenodd" clip-rule="evenodd" d="M66.8859 42.1243C69.6946 42.1243 71.9716 39.8474 71.9716 37.0386C71.9716 34.2298 69.6946 31.9528 66.8859 31.9528C64.0771 31.9528 61.8001 34.2298 61.8001 37.0386C61.8001 39.8474 64.0771 42.1243 66.8859 42.1243Z" fill="#EE6A5F"/>
</g>
<path d="M71.7597 37.0386C71.7597 39.7303 69.5776 41.9124 66.8859 41.9124C64.1941 41.9124 62.012 39.7303 62.012 37.0386C62.012 34.3468 64.1941 32.1647 66.8859 32.1647C69.5776 32.1647 71.7597 34.3468 71.7597 37.0386Z" stroke="#CE5347" stroke-width="0.423812"/>
<g filter="url(#filter3_i_0_54)">
<path fill-rule="evenodd" clip-rule="evenodd" d="M83.8384 42.1245C86.6472 42.1245 88.9241 39.8476 88.9241 37.0388C88.9241 34.23 86.6472 31.953 83.8384 31.953C81.0296 31.953 78.7526 34.23 78.7526 37.0388C78.7526 39.8476 81.0296 42.1245 83.8384 42.1245Z" fill="#F5BD4F"/>
</g>
<path d="M88.7122 37.0388C88.7122 39.7305 86.5301 41.9126 83.8384 41.9126C81.1466 41.9126 78.9645 39.7305 78.9645 37.0388C78.9645 34.347 81.1466 32.1649 83.8384 32.1649C86.5301 32.1649 88.7122 34.347 88.7122 37.0388Z" stroke="#D6A243" stroke-width="0.423812"/>
<g filter="url(#filter4_i_0_54)">
<path fill-rule="evenodd" clip-rule="evenodd" d="M100.791 42.1245C103.6 42.1245 105.877 39.8476 105.877 37.0388C105.877 34.23 103.6 31.953 100.791 31.953C97.9821 31.953 95.7051 34.23 95.7051 37.0388C95.7051 39.8476 97.9821 42.1245 100.791 42.1245Z" fill="#61C454"/>
</g>
<path d="M105.665 37.0388C105.665 39.7305 103.483 41.9126 100.791 41.9126C98.0991 41.9126 95.917 39.7305 95.917 37.0388C95.917 34.347 98.0991 32.1649 100.791 32.1649C103.483 32.1649 105.665 34.347 105.665 37.0388Z" stroke="#58A942" stroke-width="0.423812"/>
<g clip-path="url(#clip2_0_54)">
<path d="M346.178 44.3404C346.291 44.3404 346.474 44.2982 346.649 44.1997C350.653 41.9552 352.025 41.0054 352.025 38.4372V33.0547C352.025 32.316 351.708 32.0838 351.11 31.8305C350.28 31.4857 347.599 30.5218 346.769 30.2333C346.579 30.17 346.375 30.1278 346.178 30.1278C345.981 30.1278 345.777 30.1841 345.594 30.2333C344.764 30.4726 342.076 31.4928 341.246 31.8305C340.655 32.0767 340.331 32.316 340.331 33.0547V38.4372C340.331 41.0054 341.71 41.9482 345.707 44.1997C345.89 44.2982 346.065 44.3404 346.178 44.3404ZM346.459 31.3239C347.522 31.7461 349.583 32.4919 350.674 32.8648C350.864 32.9351 350.906 33.0336 350.906 33.2729V38.1769C350.906 40.351 349.865 40.9209 346.614 42.898C346.41 43.0247 346.298 43.0599 346.185 43.0669V31.2606C346.255 31.2606 346.347 31.2817 346.459 31.3239Z" fill="#737373"/>
<rect x="367.792" y="25.1719" width="437.374" height="23.7335" rx="5.08575" fill="black" fill-opacity="0.05"/>
<g clip-path="url(#clip3_0_54)">
<path d="M527.552 41.8834H532.28C532.921 41.8834 533.234 41.5656 533.234 40.8703V37.2248C533.234 36.599 532.976 36.2762 532.444 36.2216V34.97C532.444 33.0976 531.217 32.1937 529.916 32.1937C528.615 32.1937 527.388 33.0976 527.388 34.97V36.2464C526.901 36.3209 526.599 36.6388 526.599 37.2248V40.8703C526.599 41.5656 526.911 41.8834 527.552 41.8834ZM528.188 34.8657C528.188 33.6191 528.987 32.9585 529.916 32.9585C530.845 32.9585 531.645 33.6191 531.645 34.8657V36.2166L528.188 36.2216V34.8657Z" fill="#9E9E9E"/>
<path d="M538.868 41.6885L539.81 41.8284C539.849 42.1189 539.959 42.3305 540.138 42.4633C540.378 42.6426 540.707 42.7323 541.123 42.7323C541.571 42.7323 541.917 42.6426 542.161 42.4633C542.405 42.2839 542.57 42.0328 542.656 41.71C542.706 41.5127 542.73 41.0984 542.726 40.4671C542.303 40.9657 541.776 41.215 541.144 41.215C540.359 41.215 539.751 40.9316 539.32 40.3649C538.89 39.7982 538.675 39.1184 538.675 38.3257C538.675 37.7805 538.773 37.2783 538.971 36.8192C539.168 36.3565 539.453 35.9996 539.826 35.7485C540.203 35.4974 540.644 35.3719 541.15 35.3719C541.824 35.3719 542.38 35.6445 542.818 36.1897V35.501H543.711V40.4402C543.711 41.3298 543.619 41.9593 543.436 42.3287C543.257 42.7018 542.97 42.9959 542.575 43.2111C542.185 43.4264 541.702 43.534 541.128 43.534C540.447 43.534 539.896 43.3797 539.476 43.0712C539.057 42.7664 538.854 42.3054 538.868 41.6885ZM539.67 38.2558C539.67 39.0054 539.819 39.5524 540.117 39.8968C540.414 40.2411 540.787 40.4133 541.236 40.4133C541.681 40.4133 542.054 40.2429 542.355 39.9022C542.656 39.5578 542.807 39.0198 542.807 38.288C542.807 37.5886 542.651 37.0613 542.339 36.7062C542.03 36.3511 541.657 36.1735 541.22 36.1735C540.789 36.1735 540.423 36.3493 540.122 36.7008C539.821 37.0488 539.67 37.5671 539.67 38.2558ZM545.114 41.215V33.3273H546.083V41.215H545.114ZM547.184 38.358C547.184 37.2998 547.479 36.5161 548.067 36.0067C548.558 35.5835 549.157 35.3719 549.864 35.3719C550.649 35.3719 551.292 35.6301 551.79 36.1466C552.289 36.6596 552.538 37.3698 552.538 38.2773C552.538 39.0126 552.427 39.5919 552.204 40.0152C551.986 40.4348 551.665 40.7612 551.241 40.9944C550.822 41.2276 550.362 41.3441 549.864 41.3441C549.064 41.3441 548.417 41.0877 547.922 40.5747C547.43 40.0618 547.184 39.3229 547.184 38.358ZM548.18 38.358C548.18 39.0897 548.339 39.6385 548.659 40.0044C548.978 40.3667 549.38 40.5478 549.864 40.5478C550.345 40.5478 550.745 40.3649 551.064 39.999C551.383 39.6332 551.543 39.0754 551.543 38.3257C551.543 37.6191 551.381 37.0846 551.058 36.7223C550.739 36.3565 550.341 36.1735 549.864 36.1735C549.38 36.1735 548.978 36.3547 548.659 36.717C548.339 37.0792 548.18 37.6263 548.18 38.358ZM554.528 41.215H553.629V33.3273H554.598V36.1413C555.007 35.6283 555.528 35.3719 556.163 35.3719C556.515 35.3719 556.847 35.4436 557.159 35.5871C557.474 35.727 557.733 35.926 557.934 36.1843C558.138 36.439 558.298 36.7474 558.412 37.1097C558.527 37.472 558.585 37.8594 558.585 38.2719C558.585 39.2511 558.342 40.008 557.858 40.5424C557.374 41.0769 556.793 41.3441 556.115 41.3441C555.441 41.3441 554.912 41.0626 554.528 40.4994V41.215ZM554.517 38.3149C554.517 39.0001 554.61 39.4951 554.797 39.7999C555.102 40.2985 555.514 40.5478 556.034 40.5478C556.457 40.5478 556.823 40.3649 557.132 39.999C557.44 39.6296 557.595 39.0808 557.595 38.3526C557.595 37.6065 557.446 37.0559 557.148 36.7008C556.854 36.3457 556.497 36.1682 556.077 36.1682C555.654 36.1682 555.288 36.3529 554.98 36.7223C554.671 37.0882 554.517 37.6191 554.517 38.3149ZM563.453 40.5102C563.094 40.8151 562.748 41.0303 562.414 41.1558C562.084 41.2814 561.729 41.3441 561.349 41.3441C560.721 41.3441 560.239 41.1917 559.902 40.8868C559.565 40.5783 559.396 40.1855 559.396 39.7085C559.396 39.4287 559.459 39.174 559.584 38.9445C559.713 38.7113 559.88 38.5248 560.085 38.3849C560.293 38.245 560.526 38.1392 560.784 38.0674C560.974 38.0172 561.261 37.9688 561.645 37.9222C562.427 37.8289 563.003 37.7177 563.372 37.5886C563.376 37.4559 563.377 37.3716 563.377 37.3357C563.377 36.9411 563.286 36.6632 563.103 36.5017C562.856 36.2829 562.488 36.1735 562 36.1735C561.545 36.1735 561.207 36.2542 560.989 36.4157C560.773 36.5735 560.614 36.8551 560.51 37.2604L559.563 37.1313C559.649 36.7259 559.791 36.3995 559.988 36.152C560.185 35.9009 560.47 35.709 560.843 35.5763C561.216 35.44 561.649 35.3719 562.14 35.3719C562.628 35.3719 563.024 35.4292 563.329 35.544C563.634 35.6588 563.858 35.8041 564.002 35.9798C564.145 36.152 564.246 36.3708 564.303 36.6363C564.335 36.8013 564.351 37.099 564.351 37.5294V38.8207C564.351 39.721 564.371 40.2914 564.411 40.5317C564.454 40.7684 564.536 40.9962 564.658 41.215H563.647C563.546 41.0141 563.482 40.7792 563.453 40.5102ZM563.372 38.3472C563.021 38.4907 562.493 38.6127 561.79 38.7131C561.392 38.7705 561.111 38.8351 560.946 38.9068C560.781 38.9785 560.653 39.0843 560.564 39.2242C560.474 39.3605 560.429 39.513 560.429 39.6816C560.429 39.9398 560.526 40.1551 560.72 40.3272C560.917 40.4994 561.204 40.5855 561.58 40.5855C561.953 40.5855 562.285 40.5048 562.576 40.3434C562.866 40.1784 563.08 39.9542 563.216 39.6708C563.32 39.452 563.372 39.1292 563.372 38.7023V38.3472ZM565.792 41.215V33.3273H566.761V41.215H565.792ZM568.229 34.441V33.3273H569.197V34.441H568.229ZM568.229 41.215V35.501H569.197V41.215H568.229ZM570.633 41.215V35.501H571.499V36.3027C571.678 36.0229 571.917 35.7987 572.214 35.6301C572.512 35.4579 572.851 35.3719 573.231 35.3719C573.655 35.3719 574.001 35.4597 574.27 35.6355C574.542 35.8113 574.734 36.057 574.845 36.3726C575.297 35.7054 575.886 35.3719 576.61 35.3719C577.177 35.3719 577.613 35.5297 577.918 35.8453C578.223 36.1574 578.375 36.6398 578.375 37.2927V41.215H577.412V37.6155C577.412 37.2281 577.38 36.9501 577.315 36.7815C577.254 36.6093 577.141 36.4713 576.976 36.3672C576.811 36.2632 576.617 36.2112 576.395 36.2112C575.993 36.2112 575.66 36.3457 575.394 36.6147C575.129 36.8802 574.996 37.307 574.996 37.8953V41.215H574.028V37.5025C574.028 37.0721 573.949 36.7492 573.791 36.534C573.633 36.3188 573.375 36.2112 573.016 36.2112C572.744 36.2112 572.491 36.2829 572.257 36.4264C572.028 36.5699 571.861 36.7797 571.757 37.0559C571.653 37.3321 571.601 37.7303 571.601 38.2504V41.215H570.633ZM579.768 43.4048V35.501H580.65V36.2435C580.858 35.9529 581.093 35.7359 581.355 35.5924C581.617 35.4454 581.934 35.3719 582.307 35.3719C582.795 35.3719 583.225 35.4974 583.598 35.7485C583.971 35.9996 584.253 36.3547 584.443 36.8138C584.633 37.2693 584.728 37.7697 584.728 38.3149C584.728 38.8996 584.622 39.4269 584.411 39.8968C584.203 40.3631 583.898 40.7218 583.496 40.9729C583.098 41.2204 582.678 41.3441 582.237 41.3441C581.914 41.3441 581.624 41.276 581.366 41.1397C581.111 41.0034 580.901 40.8312 580.736 40.6231V43.4048H579.768ZM580.645 38.3903C580.645 39.1256 580.793 39.669 581.091 40.0205C581.389 40.3721 581.749 40.5478 582.173 40.5478C582.603 40.5478 582.971 40.3667 583.276 40.0044C583.584 39.6385 583.738 39.0736 583.738 38.3096C583.738 37.5814 583.588 37.0362 583.286 36.6739C582.989 36.3116 582.632 36.1305 582.216 36.1305C581.803 36.1305 581.437 36.3242 581.118 36.7116C580.802 37.0954 580.645 37.6549 580.645 38.3903ZM589.586 40.5102C589.227 40.8151 588.881 41.0303 588.547 41.1558C588.217 41.2814 587.862 41.3441 587.482 41.3441C586.854 41.3441 586.372 41.1917 586.035 40.8868C585.698 40.5783 585.529 40.1855 585.529 39.7085C585.529 39.4287 585.592 39.174 585.717 38.9445C585.846 38.7113 586.013 38.5248 586.218 38.3849C586.426 38.245 586.659 38.1392 586.917 38.0674C587.107 38.0172 587.394 37.9688 587.778 37.9222C588.56 37.8289 589.136 37.7177 589.505 37.5886C589.509 37.4559 589.51 37.3716 589.51 37.3357C589.51 36.9411 589.419 36.6632 589.236 36.5017C588.989 36.2829 588.621 36.1735 588.133 36.1735C587.678 36.1735 587.34 36.2542 587.122 36.4157C586.906 36.5735 586.747 36.8551 586.643 37.2604L585.696 37.1313C585.782 36.7259 585.923 36.3995 586.121 36.152C586.318 35.9009 586.603 35.709 586.976 35.5763C587.349 35.44 587.782 35.3719 588.273 35.3719C588.761 35.3719 589.157 35.4292 589.462 35.544C589.767 35.6588 589.991 35.8041 590.135 35.9798C590.278 36.152 590.378 36.3708 590.436 36.6363C590.468 36.8013 590.484 37.099 590.484 37.5294V38.8207C590.484 39.721 590.504 40.2914 590.543 40.5317C590.587 40.7684 590.669 40.9962 590.791 41.215H589.779C589.679 41.0141 589.614 40.7792 589.586 40.5102ZM589.505 38.3472C589.154 38.4907 588.626 38.6127 587.923 38.7131C587.525 38.7705 587.243 38.8351 587.078 38.9068C586.913 38.9785 586.786 39.0843 586.696 39.2242C586.607 39.3605 586.562 39.513 586.562 39.6816C586.562 39.9398 586.659 40.1551 586.853 40.3272C587.05 40.4994 587.337 40.5855 587.713 40.5855C588.086 40.5855 588.418 40.5048 588.709 40.3434C588.999 40.1784 589.213 39.9542 589.349 39.6708C589.453 39.452 589.505 39.1292 589.505 38.7023V38.3472ZM595.675 39.122L596.628 39.2458C596.524 39.9022 596.256 40.4169 595.826 40.7899C595.399 41.1594 594.874 41.3441 594.25 41.3441C593.468 41.3441 592.838 41.0895 592.361 40.5801C591.888 40.0672 591.651 39.3336 591.651 38.3795C591.651 37.7626 591.753 37.2227 591.958 36.76C592.162 36.2973 592.472 35.9511 592.888 35.7216C593.308 35.4884 593.764 35.3719 594.255 35.3719C594.875 35.3719 595.383 35.5297 595.778 35.8453C596.172 36.1574 596.425 36.6022 596.536 37.1797L595.595 37.3249C595.505 36.9411 595.345 36.6524 595.116 36.4587C594.89 36.265 594.615 36.1682 594.293 36.1682C593.805 36.1682 593.408 36.3439 593.104 36.6954C592.799 37.0434 592.646 37.5958 592.646 38.3526C592.646 39.1202 592.793 39.678 593.087 40.0259C593.382 40.3739 593.765 40.5478 594.239 40.5478C594.619 40.5478 594.936 40.4312 595.191 40.1981C595.446 39.9649 595.607 39.6062 595.675 39.122ZM599.527 40.3487L599.667 41.2042C599.394 41.2616 599.15 41.2903 598.935 41.2903C598.583 41.2903 598.311 41.2347 598.117 41.1235C597.923 41.0123 597.787 40.8671 597.708 40.6877C597.629 40.5048 597.59 40.1228 597.59 39.5417V36.2542H596.88V35.501H597.59V34.0859L598.553 33.5048V35.501H599.527V36.2542H598.553V39.5955C598.553 39.8717 598.569 40.0492 598.601 40.1281C598.637 40.2071 598.693 40.2698 598.768 40.3165C598.847 40.3631 598.958 40.3864 599.102 40.3864C599.209 40.3864 599.351 40.3739 599.527 40.3487ZM600.709 41.215V40.112H601.812V41.215H600.709ZM607.186 39.122L608.139 39.2458C608.035 39.9022 607.767 40.4169 607.337 40.7899C606.91 41.1594 606.385 41.3441 605.761 41.3441C604.979 41.3441 604.349 41.0895 603.872 40.5801C603.399 40.0672 603.162 39.3336 603.162 38.3795C603.162 37.7626 603.264 37.2227 603.469 36.76C603.673 36.2973 603.983 35.9511 604.399 35.7216C604.819 35.4884 605.275 35.3719 605.766 35.3719C606.387 35.3719 606.894 35.5297 607.289 35.8453C607.683 36.1574 607.936 36.6022 608.047 37.1797L607.106 37.3249C607.016 36.9411 606.856 36.6524 606.627 36.4587C606.401 36.265 606.126 36.1682 605.804 36.1682C605.316 36.1682 604.919 36.3439 604.615 36.6954C604.31 37.0434 604.157 37.5958 604.157 38.3526C604.157 39.1202 604.304 39.678 604.598 40.0259C604.893 40.3739 605.276 40.5478 605.75 40.5478C606.13 40.5478 606.447 40.4312 606.702 40.1981C606.957 39.9649 607.118 39.6062 607.186 39.122ZM608.563 38.358C608.563 37.2998 608.857 36.5161 609.445 36.0067C609.937 35.5835 610.536 35.3719 611.242 35.3719C612.028 35.3719 612.67 35.6301 613.168 36.1466C613.667 36.6596 613.916 37.3698 613.916 38.2773C613.916 39.0126 613.805 39.5919 613.583 40.0152C613.364 40.4348 613.043 40.7612 612.62 40.9944C612.2 41.2276 611.741 41.3441 611.242 41.3441C610.442 41.3441 609.795 41.0877 609.3 40.5747C608.808 40.0618 608.563 39.3229 608.563 38.358ZM609.558 38.358C609.558 39.0897 609.718 39.6385 610.037 40.0044C610.356 40.3667 610.758 40.5478 611.242 40.5478C611.723 40.5478 612.123 40.3649 612.442 39.999C612.761 39.6332 612.921 39.0754 612.921 38.3257C612.921 37.6191 612.759 37.0846 612.437 36.7223C612.117 36.3565 611.719 36.1735 611.242 36.1735C610.758 36.1735 610.356 36.3547 610.037 36.717C609.718 37.0792 609.558 37.6263 609.558 38.358ZM615.013 41.215V35.501H615.879V36.3027C616.058 36.0229 616.297 35.7987 616.595 35.6301C616.892 35.4579 617.231 35.3719 617.612 35.3719C618.035 35.3719 618.381 35.4597 618.65 35.6355C618.923 35.8113 619.115 36.057 619.226 36.3726C619.678 35.7054 620.266 35.3719 620.991 35.3719C621.557 35.3719 621.993 35.5297 622.298 35.8453C622.603 36.1574 622.755 36.6398 622.755 37.2927V41.215H621.792V37.6155C621.792 37.2281 621.76 36.9501 621.695 36.7815C621.634 36.6093 621.521 36.4713 621.356 36.3672C621.191 36.2632 620.998 36.2112 620.775 36.2112C620.374 36.2112 620.04 36.3457 619.775 36.6147C619.509 36.8802 619.376 37.307 619.376 37.8953V41.215H618.408V37.5025C618.408 37.0721 618.329 36.7492 618.171 36.534C618.013 36.3188 617.755 36.2112 617.396 36.2112C617.124 36.2112 616.871 36.2829 616.638 36.4264C616.408 36.5699 616.241 36.7797 616.137 37.0559C616.033 37.3321 615.981 37.7303 615.981 38.2504V41.215H615.013Z" fill="#4C4C4C"/>
</g>
</g>
</g>
</g>
</g>
<defs>
<filter id="filter0_d_0_54" x="0.783596" y="0.215441" width="1171.39" height="750.97" filterUnits="userSpaceOnUse" color-interpolation-filters="sRGB">
<feFlood flood-opacity="0" result="BackgroundImageFix"/>
<feColorMatrix in="SourceAlpha" type="matrix" values="0 0 0 0 0 0 0 0 0 0 0 0 0 0 0 0 0 0 127 0" result="hardAlpha"/>
<feMorphology radius="13.6473" operator="erode" in="SourceAlpha" result="effect1_dropShadow_0_54"/>
<feOffset dy="28.4318"/>
<feGaussianBlur stdDeviation="28.4318"/>
<feColorMatrix type="matrix" values="0 0 0 0 0 0 0 0 0 0 0 0 0 0 0 0 0 0 0.25 0"/>
<feBlend mode="normal" in2="BackgroundImageFix" result="effect1_dropShadow_0_54"/>
<feBlend mode="normal" in="SourceGraphic" in2="effect1_dropShadow_0_54" result="shape"/>
</filter>
<filter id="filter1_di_0_54" x="44" y="15" width="1084.96" height="45.3479" filterUnits="userSpaceOnUse" color-interpolation-filters="sRGB">
<feFlood flood-opacity="0" result="BackgroundImageFix"/>
<feColorMatrix in="SourceAlpha" type="matrix" values="0 0 0 0 0 0 0 0 0 0 0 0 0 0 0 0 0 0 127 0" result="hardAlpha"/>
<feOffset dy="0.423812"/>
<feColorMatrix type="matrix" values="0 0 0 0 0 0 0 0 0 0 0 0 0 0 0 0 0 0 0.15 0"/>
<feBlend mode="normal" in2="BackgroundImageFix" result="effect1_dropShadow_0_54"/>
<feBlend mode="normal" in="SourceGraphic" in2="effect1_dropShadow_0_54" result="shape"/>
<feColorMatrix in="SourceAlpha" type="matrix" values="0 0 0 0 0 0 0 0 0 0 0 0 0 0 0 0 0 0 127 0" result="hardAlpha"/>
<feOffset dy="-0.423812"/>
<feComposite in2="hardAlpha" operator="arithmetic" k2="-1" k3="1"/>
<feColorMatrix type="matrix" values="0 0 0 0 0 0 0 0 0 0 0 0 0 0 0 0 0 0 0.05 0"/>
<feBlend mode="normal" in2="shape" result="effect2_innerShadow_0_54"/>
</filter>
<filter id="filter2_i_0_54" x="61.8001" y="31.9528" width="10.1715" height="10.1715" filterUnits="userSpaceOnUse" color-interpolation-filters="sRGB">
<feFlood flood-opacity="0" result="BackgroundImageFix"/>
<feBlend mode="normal" in="SourceGraphic" in2="BackgroundImageFix" result="shape"/>
<feColorMatrix in="SourceAlpha" type="matrix" values="0 0 0 0 0 0 0 0 0 0 0 0 0 0 0 0 0 0 127 0" result="hardAlpha"/>
<feOffset/>
<feGaussianBlur stdDeviation="2.54287"/>
<feComposite in2="hardAlpha" operator="arithmetic" k2="-1" k3="1"/>
<feColorMatrix type="matrix" values="0 0 0 0 0.92549 0 0 0 0 0.427451 0 0 0 0 0.384314 0 0 0 1 0"/>
<feBlend mode="normal" in2="shape" result="effect1_innerShadow_0_54"/>
</filter>
<filter id="filter3_i_0_54" x="78.7526" y="31.953" width="10.1715" height="10.1715" filterUnits="userSpaceOnUse" color-interpolation-filters="sRGB">
<feFlood flood-opacity="0" result="BackgroundImageFix"/>
<feBlend mode="normal" in="SourceGraphic" in2="BackgroundImageFix" result="shape"/>
<feColorMatrix in="SourceAlpha" type="matrix" values="0 0 0 0 0 0 0 0 0 0 0 0 0 0 0 0 0 0 127 0" result="hardAlpha"/>
<feOffset/>
<feGaussianBlur stdDeviation="2.54287"/>
<feComposite in2="hardAlpha" operator="arithmetic" k2="-1" k3="1"/>
<feColorMatrix type="matrix" values="0 0 0 0 0.960784 0 0 0 0 0.768627 0 0 0 0 0.317647 0 0 0 1 0"/>
<feBlend mode="normal" in2="shape" result="effect1_innerShadow_0_54"/>
</filter>
<filter id="filter4_i_0_54" x="95.7051" y="31.953" width="10.1715" height="10.1715" filterUnits="userSpaceOnUse" color-interpolation-filters="sRGB">
<feFlood flood-opacity="0" result="BackgroundImageFix"/>
<feBlend mode="normal" in="SourceGraphic" in2="BackgroundImageFix" result="shape"/>
<feColorMatrix in="SourceAlpha" type="matrix" values="0 0 0 0 0 0 0 0 0 0 0 0 0 0 0 0 0 0 127 0" result="hardAlpha"/>
<feOffset/>
<feGaussianBlur stdDeviation="2.54287"/>
<feComposite in2="hardAlpha" operator="arithmetic" k2="-1" k3="1"/>
<feColorMatrix type="matrix" values="0 0 0 0 0.407843 0 0 0 0 0.8 0 0 0 0 0.345098 0 0 0 1 0"/>
<feBlend mode="normal" in2="shape" result="effect1_innerShadow_0_54"/>
</filter>
<clipPath id="clip0_0_54">
<rect x="44" y="15" width="1084.96" height="664.538" rx="8.47624" fill="white"/>
</clipPath>
<clipPath id="clip1_0_54">
<rect width="55.9432" height="23.7335" fill="white" transform="translate(157.582 25.1719)"/>
</clipPath>
<clipPath id="clip2_0_54">
<rect width="508.575" height="23.7335" fill="white" transform="translate(332.192 25.1719)"/>
</clipPath>
<clipPath id="clip3_0_54">
<rect x="526.599" y="30.2149" width="119.762" height="13.6473" fill="white"/>
</clipPath>
</defs>
</svg>
