<svg width="644" height="669" viewBox="0 0 644 669" fill="none" xmlns="http://www.w3.org/2000/svg">
<g filter="url(#filter0_d_0_54)">
<g clip-path="url(#clip0_0_54)">
<rect x="44" y="15" width="1084.96" height="664.538" rx="8.47624" fill="white"/>
<rect x="44.0001" y="59.9247" width="1084.96" height="619.613" fill="white"/>
<g filter="url(#filter1_di_0_54)">
<path d="M44 23.4763C44 18.795 47.7949 15 52.4762 15H1120.48C1125.16 15 1128.96 18.7949 1128.96 23.4762V59.9241H44V23.4763Z" fill="white"/>
<g clip-path="url(#clip1_0_54)">
<path d="M173.91 42.962L168.331 37.5162C168.197 37.3825 168.127 37.2207 168.127 37.0448C168.127 36.8618 168.204 36.6859 168.338 36.5734L173.91 31.1205C174.03 31.0009 174.185 30.9305 174.368 30.9305C174.734 30.9305 175.008 31.212 175.008 31.5778C175.008 31.7467 174.938 31.9156 174.825 32.0352L169.703 37.0448L174.825 42.0544C174.938 42.174 175.008 42.3358 175.008 42.5117C175.008 42.8776 174.734 43.152 174.368 43.152C174.185 43.152 174.03 43.0816 173.91 42.962Z" fill="#737373"/>
<path d="M196.739 43.159C196.922 43.159 197.077 43.0886 197.196 42.969L202.776 37.5162C202.909 37.3825 202.98 37.2207 202.98 37.0448C202.98 36.8618 202.909 36.693 202.776 36.5734L197.203 31.1275C197.077 31.0009 196.922 30.9305 196.739 30.9305C196.373 30.9305 196.099 31.212 196.099 31.5778C196.099 31.7467 196.169 31.9156 196.282 32.0352L201.404 37.0448L196.282 42.0544C196.169 42.174 196.099 42.3358 196.099 42.5117C196.099 42.8776 196.373 43.159 196.739 43.159Z" fill="#BFBFBF"/>
</g>
<path d="M129.881 43.5317H142.053C143.531 43.5317 144.263 42.8 144.263 41.3506V32.7597C144.263 31.3103 143.531 30.5785 142.053 30.5785H129.881C128.411 30.5785 127.672 31.3032 127.672 32.7597V41.3506C127.672 42.807 128.411 43.5317 129.881 43.5317ZM129.895 42.3989C129.192 42.3989 128.805 42.026 128.805 41.2943V32.816C128.805 32.0842 129.192 31.7113 129.895 31.7113H133.033V42.3989H129.895ZM142.039 31.7113C142.736 31.7113 143.13 32.0842 143.13 32.816V41.2943C143.13 42.026 142.736 42.3989 142.039 42.3989H134.138V31.7113H142.039ZM131.675 34.3216C131.893 34.3216 132.076 34.1317 132.076 33.9276C132.076 33.7166 131.893 33.5336 131.675 33.5336H130.17C129.959 33.5336 129.769 33.7166 129.769 33.9276C129.769 34.1317 129.959 34.3216 130.17 34.3216H131.675ZM131.675 36.144C131.893 36.144 132.076 35.954 132.076 35.7429C132.076 35.5318 131.893 35.3559 131.675 35.3559H130.17C129.959 35.3559 129.769 35.5318 129.769 35.7429C129.769 35.954 129.959 36.144 130.17 36.144H131.675ZM131.675 37.9592C131.893 37.9592 132.076 37.7833 132.076 37.5722C132.076 37.3612 131.893 37.1782 131.675 37.1782H130.17C129.959 37.1782 129.769 37.3612 129.769 37.5722C129.769 37.7833 129.959 37.9592 130.17 37.9592H131.675Z" fill="#737373"/>
<g filter="url(#filter2_i_0_54)">
<path fill-rule="evenodd" clip-rule="evenodd" d="M66.8859 42.1243C69.6946 42.1243 71.9716 39.8474 71.9716 37.0386C71.9716 34.2298 69.6946 31.9528 66.8859 31.9528C64.0771 31.9528 61.8001 34.2298 61.8001 37.0386C61.8001 39.8474 64.0771 42.1243 66.8859 42.1243Z" fill="#EE6A5F"/>
</g>
<path d="M71.7597 37.0386C71.7597 39.7303 69.5776 41.9124 66.8859 41.9124C64.1941 41.9124 62.012 39.7303 62.012 37.0386C62.012 34.3468 64.1941 32.1647 66.8859 32.1647C69.5776 32.1647 71.7597 34.3468 71.7597 37.0386Z" stroke="#CE5347" stroke-width="0.423812"/>
<g filter="url(#filter3_i_0_54)">
<path fill-rule="evenodd" clip-rule="evenodd" d="M83.8384 42.1245C86.6472 42.1245 88.9241 39.8476 88.9241 37.0388C88.9241 34.23 86.6472 31.953 83.8384 31.953C81.0296 31.953 78.7526 34.23 78.7526 37.0388C78.7526 39.8476 81.0296 42.1245 83.8384 42.1245Z" fill="#F5BD4F"/>
</g>
<path d="M88.7122 37.0388C88.7122 39.7305 86.5301 41.9126 83.8384 41.9126C81.1466 41.9126 78.9645 39.7305 78.9645 37.0388C78.9645 34.347 81.1466 32.1649 83.8384 32.1649C86.5301 32.1649 88.7122 34.347 88.7122 37.0388Z" stroke="#D6A243" stroke-width="0.423812"/>
<g filter="url(#filter4_i_0_54)">
<path fill-rule="evenodd" clip-rule="evenodd" d="M100.791 42.1245C103.6 42.1245 105.877 39.8476 105.877 37.0388C105.877 34.23 103.6 31.953 100.791 31.953C97.9821 31.953 95.7051 34.23 95.7051 37.0388C95.7051 39.8476 97.9821 42.1245 100.791 42.1245Z" fill="#61C454"/>
</g>
<path d="M105.665 37.0388C105.665 39.7305 103.483 41.9126 100.791 41.9126C98.0991 41.9126 95.917 39.7305 95.917 37.0388C95.917 34.347 98.0991 32.1649 100.791 32.1649C103.483 32.1649 105.665 34.347 105.665 37.0388Z" stroke="#58A942" stroke-width="0.423812"/>
<g clip-path="url(#clip2_0_54)">
<path d="M346.178 44.3404C346.291 44.3404 346.474 44.2982 346.649 44.1997C350.653 41.9552 352.025 41.0054 352.025 38.4372V33.0547C352.025 32.316 351.708 32.0838 351.11 31.8305C350.28 31.4857 347.599 30.5218 346.769 30.2333C346.579 30.17 346.375 30.1278 346.178 30.1278C345.981 30.1278 345.777 30.1841 345.594 30.2333C344.764 30.4726 342.076 31.4928 341.246 31.8305C340.655 32.0767 340.331 32.316 340.331 33.0547V38.4372C340.331 41.0054 341.71 41.9482 345.707 44.1997C345.89 44.2982 346.065 44.3404 346.178 44.3404ZM346.459 31.3239C347.522 31.7461 349.583 32.4919 350.674 32.8648C350.864 32.9351 350.906 33.0336 350.906 33.2729V38.1769C350.906 40.351 349.865 40.9209 346.614 42.898C346.41 43.0247 346.298 43.0599 346.185 43.0669V31.2606C346.255 31.2606 346.347 31.2817 346.459 31.3239Z" fill="#737373"/>
<rect x="367.792" y="25.1719" width="437.374" height="23.7335" rx="5.08575" fill="black" fill-opacity="0.05"/>
<g clip-path="url(#clip3_0_54)">
<path d="M527.552 41.8834H532.28C532.921 41.8834 533.234 41.5655 533.234 40.8702V37.2247C533.234 36.599 532.976 36.2761 532.444 36.2215V34.9699C532.444 33.0975 531.217 32.1936 529.916 32.1936C528.615 32.1936 527.388 33.0975 527.388 34.9699V36.2463C526.901 36.3208 526.599 36.6387 526.599 37.2247V40.8702C526.599 41.5655 526.911 41.8834 527.552 41.8834ZM528.188 34.8656C528.188 33.619 528.987 32.9585 529.916 32.9585C530.845 32.9585 531.645 33.619 531.645 34.8656V36.2165L528.188 36.2215V34.8656Z" fill="#9E9E9E"/>
<path d="M541.252 41.258C541.435 41.258 541.612 41.2365 541.795 41.2042V40.4079C541.623 40.4241 541.532 40.4295 541.365 40.4295C540.762 40.4295 540.526 40.1551 540.526 39.4717V36.1897H541.795V35.4149H540.526V33.9138H539.557V35.4149H538.642V36.1897H539.557V39.7085C539.557 40.8168 540.057 41.258 541.252 41.258ZM543.204 41.215H544.14V37.7823C544.14 36.7654 544.727 36.1413 545.652 36.1413C546.578 36.1413 547.008 36.6416 547.008 37.6854V41.215H547.944V37.4595C547.944 36.0821 547.218 35.3127 545.916 35.3127C545.06 35.3127 544.517 35.6732 544.226 36.2865H544.14V33.1121H543.204V41.215ZM551.962 41.3172C553.329 41.3172 554.157 40.5424 554.357 39.7569L554.367 39.7139H553.431L553.41 39.7623C553.254 40.112 552.769 40.4833 551.984 40.4833C550.951 40.4833 550.289 39.7838 550.262 38.584H554.437V38.2181C554.437 36.4856 553.48 35.3127 551.903 35.3127C550.327 35.3127 549.304 36.5394 549.304 38.3311V38.3365C549.304 40.1551 550.305 41.3172 551.962 41.3172ZM551.898 36.1466C552.753 36.1466 553.388 36.6901 553.485 37.8361H550.278C550.38 36.7331 551.037 36.1466 551.898 36.1466ZM557.987 41.3172C558.794 41.3172 559.44 40.9352 559.795 40.2896H559.881V41.215H560.817V33.1121H559.881V36.3296H559.795C559.478 35.7108 558.784 35.3127 557.987 35.3127C556.513 35.3127 555.555 36.491 555.555 38.3096V38.3203C555.555 40.1281 556.518 41.3172 557.987 41.3172ZM558.203 40.4886C557.143 40.4886 556.513 39.6708 556.513 38.3203V38.3096C556.513 36.9591 557.143 36.1413 558.203 36.1413C559.257 36.1413 559.903 36.9698 559.903 38.3096V38.3203C559.903 39.6601 559.257 40.4886 558.203 40.4886ZM564.938 41.3172C566.304 41.3172 567.133 40.5424 567.332 39.7569L567.343 39.7139H566.407L566.385 39.7623C566.229 40.112 565.745 40.4833 564.959 40.4833C563.926 40.4833 563.264 39.7838 563.238 38.584H567.413V38.2181C567.413 36.4856 566.455 35.3127 564.879 35.3127C563.302 35.3127 562.28 36.5394 562.28 38.3311V38.3365C562.28 40.1551 563.281 41.3172 564.938 41.3172ZM564.873 36.1466C565.729 36.1466 566.364 36.6901 566.46 37.8361H563.254C563.356 36.7331 564.012 36.1466 564.873 36.1466ZM570.812 41.3172C572.13 41.3172 573.137 40.6016 573.137 39.5686V39.5578C573.137 38.7292 572.609 38.2558 571.517 37.9921L570.624 37.7769C569.941 37.6101 569.65 37.3626 569.65 36.9698V36.9591C569.65 36.4479 570.156 36.0928 570.844 36.0928C571.544 36.0928 571.996 36.4103 572.12 36.8676H573.04C572.911 35.9207 572.066 35.3127 570.85 35.3127C569.618 35.3127 568.692 36.039 568.692 37.0021V37.0075C568.692 37.8415 569.182 38.3149 570.269 38.5732L571.167 38.7884C571.883 38.9606 572.179 39.235 572.179 39.6278V39.6385C572.179 40.1658 571.625 40.5371 570.844 40.5371C570.102 40.5371 569.639 40.2196 569.483 39.7354H568.526C568.633 40.6931 569.521 41.3172 570.812 41.3172ZM575.04 34.2958C575.395 34.2958 575.686 34.0052 575.686 33.6501C575.686 33.295 575.395 33.0045 575.04 33.0045C574.685 33.0045 574.395 33.295 574.395 33.6501C574.395 34.0052 574.685 34.2958 575.04 34.2958ZM574.567 41.215H575.503V35.4149H574.567V41.215ZM579.613 43.2596C581.194 43.2596 582.195 42.431 582.195 41.1343V35.4149H581.259V36.3726H581.194C580.839 35.7162 580.204 35.3127 579.387 35.3127C577.869 35.3127 576.933 36.491 576.933 38.1159V38.1266C576.933 39.7515 577.864 40.9137 579.365 40.9137C580.161 40.9137 580.818 40.5532 581.184 39.9129H581.27V41.0859C581.27 41.9414 580.651 42.431 579.613 42.431C578.779 42.431 578.262 42.1189 578.16 41.6777L578.154 41.6723H577.186L577.175 41.6777C577.32 42.63 578.214 43.2596 579.613 43.2596ZM579.569 40.0851C578.493 40.0851 577.891 39.278 577.891 38.1266V38.1159C577.891 36.9645 578.493 36.1413 579.569 36.1413C580.64 36.1413 581.291 36.9645 581.291 38.1159V38.1266C581.291 39.278 580.646 40.0851 579.569 40.0851ZM583.894 41.215H584.83V37.7823C584.83 36.7654 585.417 36.1413 586.342 36.1413C587.268 36.1413 587.698 36.6416 587.698 37.6854V41.215H588.634V37.4595C588.634 36.0821 587.908 35.3127 586.606 35.3127C585.751 35.3127 585.207 35.6732 584.917 36.2865H584.83V35.4149H583.894V41.215ZM592.653 41.3172C594.019 41.3172 594.848 40.5424 595.047 39.7569L595.058 39.7139H594.121L594.1 39.7623C593.944 40.112 593.46 40.4833 592.674 40.4833C591.641 40.4833 590.979 39.7838 590.952 38.584H595.128V38.2181C595.128 36.4856 594.17 35.3127 592.593 35.3127C591.017 35.3127 589.995 36.5394 589.995 38.3311V38.3365C589.995 40.1551 590.995 41.3172 592.653 41.3172ZM592.588 36.1466C593.444 36.1466 594.078 36.6901 594.175 37.8361H590.969C591.071 36.7331 591.727 36.1466 592.588 36.1466ZM596.536 41.215H597.472V37.6209C597.472 36.7708 598.107 36.2058 599 36.2058C599.205 36.2058 599.382 36.2273 599.576 36.2596V35.3503C599.485 35.3342 599.286 35.3127 599.108 35.3127C598.323 35.3127 597.779 35.6678 597.559 36.2758H597.472V35.4149H596.536V41.215ZM602.572 41.3172C603.89 41.3172 604.896 40.6016 604.896 39.5686V39.5578C604.896 38.7292 604.369 38.2558 603.277 37.9921L602.384 37.7769C601.7 37.6101 601.41 37.3626 601.41 36.9698V36.9591C601.41 36.4479 601.916 36.0928 602.604 36.0928C603.304 36.0928 603.756 36.4103 603.879 36.8676H604.8C604.67 35.9207 603.826 35.3127 602.61 35.3127C601.378 35.3127 600.452 36.039 600.452 37.0021V37.0075C600.452 37.8415 600.942 38.3149 602.029 38.5732L602.927 38.7884C603.643 38.9606 603.939 39.235 603.939 39.6278V39.6385C603.939 40.1658 603.384 40.5371 602.604 40.5371C601.862 40.5371 601.399 40.2196 601.243 39.7354H600.285C600.393 40.6931 601.281 41.3172 602.572 41.3172ZM606.359 41.215H607.295V37.7823C607.295 36.7654 607.882 36.1413 608.807 36.1413C609.732 36.1413 610.163 36.6416 610.163 37.6854V41.215H611.099V37.4595C611.099 36.0821 610.373 35.3127 609.071 35.3127C608.215 35.3127 607.672 35.6732 607.381 36.2865H607.295V33.1121H606.359V41.215ZM613.245 34.2958C613.6 34.2958 613.89 34.0052 613.89 33.6501C613.89 33.295 613.6 33.0045 613.245 33.0045C612.89 33.0045 612.599 33.295 612.599 33.6501C612.599 34.0052 612.89 34.2958 613.245 34.2958ZM612.771 41.215H613.707V35.4149H612.771V41.215ZM615.428 43.152H616.364V40.3003H616.45C616.768 40.9191 617.462 41.3172 618.258 41.3172C619.733 41.3172 620.69 40.1389 620.69 38.3203V38.3096C620.69 36.5017 619.727 35.3127 618.258 35.3127C617.451 35.3127 616.806 35.6947 616.45 36.3403H616.364V35.4149H615.428V43.152ZM618.043 40.4886C616.989 40.4886 616.343 39.6601 616.343 38.3203V38.3096C616.343 36.9698 616.989 36.1413 618.043 36.1413C619.103 36.1413 619.733 36.9591 619.733 38.3096V38.3203C619.733 39.6708 619.103 40.4886 618.043 40.4886ZM622.766 41.2688C623.153 41.2688 623.466 40.9514 623.466 40.5693C623.466 40.182 623.153 39.8699 622.766 39.8699C622.384 39.8699 622.067 40.182 622.067 40.5693C622.067 40.9514 622.384 41.2688 622.766 41.2688ZM627.387 41.3172C628.78 41.3172 629.561 40.5693 629.797 39.5202L629.808 39.461L628.883 39.4664L628.872 39.4986C628.657 40.1443 628.162 40.4886 627.381 40.4886C626.348 40.4886 625.681 39.6332 625.681 38.2988V38.288C625.681 36.9806 626.338 36.1413 627.381 36.1413C628.215 36.1413 628.732 36.604 628.877 37.1743L628.883 37.1904H629.813L629.808 37.1582C629.636 36.1251 628.791 35.3127 627.381 35.3127C625.757 35.3127 624.723 36.4856 624.723 38.288V38.2988C624.723 40.1389 625.762 41.3172 627.387 41.3172ZM633.519 41.3172C635.171 41.3172 636.194 40.1766 636.194 38.3203V38.3096C636.194 36.4479 635.171 35.3127 633.519 35.3127C631.868 35.3127 630.845 36.4479 630.845 38.3096V38.3203C630.845 40.1766 631.868 41.3172 633.519 41.3172ZM633.519 40.4886C632.422 40.4886 631.803 39.687 631.803 38.3203V38.3096C631.803 36.9376 632.422 36.1413 633.519 36.1413C634.617 36.1413 635.236 36.9376 635.236 38.3096V38.3203C635.236 39.687 634.617 40.4886 633.519 40.4886ZM637.602 41.215H638.538V37.6209C638.538 36.803 639.114 36.1413 639.873 36.1413C640.604 36.1413 641.078 36.5878 641.078 37.2765V41.215H642.014V37.4864C642.014 36.7492 642.547 36.1413 643.354 36.1413C644.172 36.1413 644.564 36.5663 644.564 37.4218V41.215H645.501V37.2066C645.501 35.9906 644.839 35.3127 643.655 35.3127C642.853 35.3127 642.192 35.7162 641.88 36.3296H641.794C641.525 35.727 640.976 35.3127 640.19 35.3127C639.432 35.3127 638.883 35.6732 638.624 36.2973H638.538V35.4149H637.602V41.215Z" fill="#4C4C4C"/>
</g>
</g>
</g>
</g>
</g>
<defs>
<filter id="filter0_d_0_54" x="0.783596" y="0.215441" width="1171.39" height="750.97" filterUnits="userSpaceOnUse" color-interpolation-filters="sRGB">
<feFlood flood-opacity="0" result="BackgroundImageFix"/>
<feColorMatrix in="SourceAlpha" type="matrix" values="0 0 0 0 0 0 0 0 0 0 0 0 0 0 0 0 0 0 127 0" result="hardAlpha"/>
<feMorphology radius="13.6473" operator="erode" in="SourceAlpha" result="effect1_dropShadow_0_54"/>
<feOffset dy="28.4318"/>
<feGaussianBlur stdDeviation="28.4318"/>
<feColorMatrix type="matrix" values="0 0 0 0 0 0 0 0 0 0 0 0 0 0 0 0 0 0 0.25 0"/>
<feBlend mode="normal" in2="BackgroundImageFix" result="effect1_dropShadow_0_54"/>
<feBlend mode="normal" in="SourceGraphic" in2="effect1_dropShadow_0_54" result="shape"/>
</filter>
<filter id="filter1_di_0_54" x="44" y="15" width="1084.96" height="45.3479" filterUnits="userSpaceOnUse" color-interpolation-filters="sRGB">
<feFlood flood-opacity="0" result="BackgroundImageFix"/>
<feColorMatrix in="SourceAlpha" type="matrix" values="0 0 0 0 0 0 0 0 0 0 0 0 0 0 0 0 0 0 127 0" result="hardAlpha"/>
<feOffset dy="0.423812"/>
<feColorMatrix type="matrix" values="0 0 0 0 0 0 0 0 0 0 0 0 0 0 0 0 0 0 0.15 0"/>
<feBlend mode="normal" in2="BackgroundImageFix" result="effect1_dropShadow_0_54"/>
<feBlend mode="normal" in="SourceGraphic" in2="effect1_dropShadow_0_54" result="shape"/>
<feColorMatrix in="SourceAlpha" type="matrix" values="0 0 0 0 0 0 0 0 0 0 0 0 0 0 0 0 0 0 127 0" result="hardAlpha"/>
<feOffset dy="-0.423812"/>
<feComposite in2="hardAlpha" operator="arithmetic" k2="-1" k3="1"/>
<feColorMatrix type="matrix" values="0 0 0 0 0 0 0 0 0 0 0 0 0 0 0 0 0 0 0.05 0"/>
<feBlend mode="normal" in2="shape" result="effect2_innerShadow_0_54"/>
</filter>
<filter id="filter2_i_0_54" x="61.8001" y="31.9528" width="10.1715" height="10.1715" filterUnits="userSpaceOnUse" color-interpolation-filters="sRGB">
<feFlood flood-opacity="0" result="BackgroundImageFix"/>
<feBlend mode="normal" in="SourceGraphic" in2="BackgroundImageFix" result="shape"/>
<feColorMatrix in="SourceAlpha" type="matrix" values="0 0 0 0 0 0 0 0 0 0 0 0 0 0 0 0 0 0 127 0" result="hardAlpha"/>
<feOffset/>
<feGaussianBlur stdDeviation="2.54287"/>
<feComposite in2="hardAlpha" operator="arithmetic" k2="-1" k3="1"/>
<feColorMatrix type="matrix" values="0 0 0 0 0.92549 0 0 0 0 0.427451 0 0 0 0 0.384314 0 0 0 1 0"/>
<feBlend mode="normal" in2="shape" result="effect1_innerShadow_0_54"/>
</filter>
<filter id="filter3_i_0_54" x="78.7526" y="31.953" width="10.1715" height="10.1715" filterUnits="userSpaceOnUse" color-interpolation-filters="sRGB">
<feFlood flood-opacity="0" result="BackgroundImageFix"/>
<feBlend mode="normal" in="SourceGraphic" in2="BackgroundImageFix" result="shape"/>
<feColorMatrix in="SourceAlpha" type="matrix" values="0 0 0 0 0 0 0 0 0 0 0 0 0 0 0 0 0 0 127 0" result="hardAlpha"/>
<feOffset/>
<feGaussianBlur stdDeviation="2.54287"/>
<feComposite in2="hardAlpha" operator="arithmetic" k2="-1" k3="1"/>
<feColorMatrix type="matrix" values="0 0 0 0 0.960784 0 0 0 0 0.768627 0 0 0 0 0.317647 0 0 0 1 0"/>
<feBlend mode="normal" in2="shape" result="effect1_innerShadow_0_54"/>
</filter>
<filter id="filter4_i_0_54" x="95.7051" y="31.953" width="10.1715" height="10.1715" filterUnits="userSpaceOnUse" color-interpolation-filters="sRGB">
<feFlood flood-opacity="0" result="BackgroundImageFix"/>
<feBlend mode="normal" in="SourceGraphic" in2="BackgroundImageFix" result="shape"/>
<feColorMatrix in="SourceAlpha" type="matrix" values="0 0 0 0 0 0 0 0 0 0 0 0 0 0 0 0 0 0 127 0" result="hardAlpha"/>
<feOffset/>
<feGaussianBlur stdDeviation="2.54287"/>
<feComposite in2="hardAlpha" operator="arithmetic" k2="-1" k3="1"/>
<feColorMatrix type="matrix" values="0 0 0 0 0.407843 0 0 0 0 0.8 0 0 0 0 0.345098 0 0 0 1 0"/>
<feBlend mode="normal" in2="shape" result="effect1_innerShadow_0_54"/>
</filter>
<clipPath id="clip0_0_54">
<rect x="44" y="15" width="1084.96" height="664.538" rx="8.47624" fill="white"/>
</clipPath>
<clipPath id="clip1_0_54">
<rect width="55.9432" height="23.7335" fill="white" transform="translate(157.582 25.1719)"/>
</clipPath>
<clipPath id="clip2_0_54">
<rect width="508.575" height="23.7335" fill="white" transform="translate(332.192 25.1719)"/>
</clipPath>
<clipPath id="clip3_0_54">
<rect x="526.599" y="30.2149" width="119.762" height="13.6473" fill="white"/>
</clipPath>
</defs>
</svg>
