<?xml version="1.0" encoding="UTF-8" standalone="no"?>
<!DOCTYPE svg PUBLIC "-//W3C//DTD SVG 1.1//EN" "http://www.w3.org/Graphics/SVG/1.1/DTD/svg11.dtd">
<svg xmlns="http://www.w3.org/2000/svg" version="1.1" viewBox="0.00 0.00 1630.00 1066.00">
<g stroke-width="2.00" fill="none" stroke-linecap="butt">
<path stroke="#888888" vector-effect="non-scaling-stroke" d="
  M 397.43 544.72
  A 0.24 0.24 0.0 0 1 397.82 545.00
  C 383.33 574.92 347.77 599.30 316.83 606.31
  A 0.71 0.71 0.0 0 0 316.77 607.67
  C 322.09 609.39 327.54 610.59 332.57 612.91
  C 338.70 615.72 358.19 626.18 364.19 624.65
  C 402.90 614.79 426.16 578.74 435.05 542.15
  Q 443.49 507.41 438.20 472.04
  Q 438.13 471.55 437.65 471.43
  Q 407.89 463.58 380.15 450.37
  C 375.19 448.01 368.94 444.14 363.16 441.34
  Q 362.67 441.10 362.21 441.38
  C 339.55 455.36 314.06 464.33 288.51 471.39
  Q 288.01 471.53 287.93 472.03
  Q 285.40 487.17 285.62 502.49
  Q 285.68 506.47 286.76 508.29
  C 296.64 524.89 355.98 488.43 366.23 481.19
  A 0.48 0.47 -85.4 0 1 366.84 481.91
  C 361.61 487.30 356.46 492.74 350.95 497.21
  C 331.37 513.13 301.32 531.40 276.95 531.71
  A 0.66 0.66 0.0 0 0 276.67 532.96
  Q 287.10 538.07 292.20 547.97
  Q 293.67 550.82 295.19 551.81
  C 303.22 556.99 324.34 546.17 332.29 542.05
  Q 373.46 520.72 408.29 490.09
  Q 409.05 489.42 408.55 490.30
  C 389.42 523.99 349.30 549.26 315.15 565.36
  Q 308.68 568.41 301.76 570.13
  C 298.63 570.92 294.93 571.01 291.58 571.54
  A 0.96 0.96 0.0 0 0 291.32 573.36
  Q 300.81 577.81 308.20 584.30
  Q 311.36 587.07 313.40 587.92
  C 332.94 596.12 383.85 558.68 397.43 544.72"
/>
<path stroke="#888888" vector-effect="non-scaling-stroke" d="
  M 628.07 467.52
  A 0.27 0.27 0.0 0 0 627.80 467.25
  L 615.02 467.25
  A 0.27 0.27 0.0 0 0 614.75 467.52
  L 614.75 566.98
  A 0.27 0.27 0.0 0 0 615.02 567.25
  L 627.80 567.25
  A 0.27 0.27 0.0 0 0 628.07 566.98
  L 628.07 467.52"
/>
<path stroke="#888888" vector-effect="non-scaling-stroke" d="
  M 888.0668 467.5318
  A 0.27 0.27 0.0 0 0 887.7973 467.2614
  L 874.8573 467.2388
  A 0.27 0.27 0.0 0 0 874.5868 467.5083
  L 874.4132 566.9682
  A 0.27 0.27 0.0 0 0 874.6827 567.2386
  L 887.6227 567.2612
  A 0.27 0.27 0.0 0 0 887.8932 566.9917
  L 888.0668 467.5318"
/>
<path stroke="#888888" vector-effect="non-scaling-stroke" d="
  M 581.39 555.22
  A 0.36 0.36 0.0 0 1 582.00 555.48
  L 582.00 566.75
  Q 582.00 567.25 582.50 567.25
  L 595.59 567.25
  Q 596.18 567.25 596.19 566.66
  L 596.45 513.86
  Q 596.46 512.75 595.36 512.75
  L 557.25 512.75
  Q 556.75 512.75 556.75 513.25
  L 556.75 524.25
  A 0.50 0.50 0.0 0 0 557.25 524.75
  L 580.98 524.75
  Q 581.46 524.75 581.39 525.23
  C 579.41 537.91 571.50 550.98 558.68 554.87
  C 542.74 559.70 527.70 554.52 518.62 540.80
  C 503.14 517.41 515.04 481.33 546.19 480.66
  C 557.81 480.42 565.05 484.58 573.05 492.45
  Q 573.49 492.89 573.92 492.45
  L 582.54 483.83
  Q 582.89 483.48 582.55 483.13
  C 563.75 463.76 531.71 463.99 512.74 482.18
  C 482.17 511.49 499.95 566.10 543.40 568.39
  C 557.48 569.13 571.14 565.04 581.39 555.22"
/>
<path stroke="#888888" vector-effect="non-scaling-stroke" d="
  M 740.42 507.73
  A 0.27 0.27 0.0 0 1 740.00 507.51
  L 740.00 470.50
  Q 740.00 469.75 739.25 469.75
  L 727.25 469.75
  Q 726.75 469.75 726.75 470.25
  L 726.75 566.75
  Q 726.75 567.25 727.25 567.25
  L 739.50 567.25
  Q 740.00 567.25 740.00 566.75
  L 740.00 563.02
  Q 740.00 562.18 740.69 562.66
  C 766.62 580.62 795.88 556.13 789.57 527.24
  C 784.62 504.57 759.48 494.52 740.42 507.73"
/>
<path stroke="#888888" vector-effect="non-scaling-stroke" d="
  M 964.76 470.01
  A 0.26 0.26 0.0 0 0 964.50 469.75
  L 950.76 469.75
  A 0.26 0.26 0.0 0 0 950.50 470.01
  L 950.50 566.99
  A 0.26 0.26 0.0 0 0 950.76 567.25
  L 964.50 567.25
  A 0.26 0.26 0.0 0 0 964.76 566.99
  L 964.76 470.01"
/>
<path stroke="#888888" vector-effect="non-scaling-stroke" d="
  M 1321.77 514.70
  Q 1321.85 528.74 1321.99 542.73
  Q 1322.07 550.82 1323.31 554.45
  C 1327.52 566.74 1339.58 571.01 1351.41 567.20
  Q 1351.99 567.01 1351.99 566.41
  L 1352.00 557.04
  Q 1352.00 556.42 1351.42 556.61
  C 1340.85 560.00 1335.18 552.74 1335.23 543.00
  Q 1335.30 528.70 1335.20 514.32
  A 0.32 0.32 0.0 0 1 1335.52 514.00
  L 1351.50 514.00
  Q 1352.00 514.00 1352.00 513.50
  L 1352.00 503.50
  Q 1352.00 503.00 1351.50 503.00
  L 1335.75 503.00
  Q 1335.25 503.00 1335.25 502.50
  L 1335.25 483.25
  Q 1335.25 482.75 1334.75 482.75
  L 1322.33 482.75
  Q 1321.90 482.75 1321.90 483.17
  L 1321.75 502.50
  Q 1321.75 503.00 1321.25 503.00
  L 1314.63 503.00
  Q 1314.00 503.00 1314.00 503.62
  L 1314.00 513.50
  Q 1314.00 514.00 1314.50 514.00
  L 1321.07 514.00
  Q 1321.77 514.00 1321.77 514.70"
/>
<path stroke="#888888" vector-effect="non-scaling-stroke" d="
  M 1000.00 512.25
  L 1000.00 503.50
  Q 1000.00 503.00 999.50 503.00
  L 986.90 503.00
  A 0.41 0.40 90.0 0 0 986.50 503.41
  L 986.50 566.75
  Q 986.50 567.25 987.00 567.25
  L 999.49 567.25
  Q 1000.00 567.25 1000.00 566.73
  Q 999.99 549.16 1000.02 531.59
  C 1000.04 523.73 1003.05 515.55 1011.51 513.50
  C 1023.94 510.50 1031.32 516.36 1031.27 529.26
  Q 1031.19 547.95 1031.28 566.73
  Q 1031.28 567.25 1031.80 567.25
  L 1044.24 567.25
  Q 1044.76 567.25 1044.75 566.73
  Q 1044.74 552.02 1044.76 537.33
  C 1044.79 524.64 1046.11 513.29 1060.98 512.88
  C 1075.41 512.48 1076.00 523.48 1075.99 534.50
  Q 1075.99 550.61 1076.01 566.74
  Q 1076.01 567.25 1076.51 567.25
  L 1088.74 567.25
  Q 1089.27 567.25 1089.27 566.72
  Q 1089.31 547.26 1088.95 527.82
  Q 1088.83 521.63 1087.14 516.34
  C 1080.88 496.86 1050.46 497.02 1042.63 515.10
  Q 1042.39 515.65 1042.15 515.10
  Q 1037.42 504.14 1025.53 502.25
  C 1015.97 500.73 1005.30 503.35 1000.39 512.35
  Q 1000.00 513.05 1000.00 512.25"
/>
<path stroke="#888888" vector-effect="non-scaling-stroke" d="
  M 1116.25 507.04
  L 1116.25 503.62
  Q 1116.25 503.00 1115.62 503.00
  L 1103.45 503.00
  Q 1102.97 503.00 1102.97 503.48
  L 1102.99 599.87
  Q 1102.99 600.50 1103.62 600.50
  L 1115.75 600.50
  Q 1116.25 600.50 1116.25 600.00
  L 1116.25 563.23
  Q 1116.25 562.44 1116.91 562.88
  Q 1128.05 570.30 1139.74 568.25
  C 1173.14 562.37 1176.54 514.68 1145.38 503.65
  Q 1131.08 498.59 1116.96 507.44
  Q 1116.25 507.88 1116.25 507.04"
/>
<path stroke="#888888" vector-effect="non-scaling-stroke" d="
  M 1221.25 561.00
  L 1221.25 566.75
  Q 1221.25 567.25 1221.75 567.25
  L 1233.99 567.25
  Q 1234.50 567.25 1234.50 566.73
  Q 1234.49 546.47 1234.52 526.17
  C 1234.53 514.07 1229.74 505.42 1216.97 502.76
  Q 1198.15 498.83 1184.75 512.26
  Q 1184.27 512.75 1184.77 513.21
  L 1192.96 520.82
  Q 1193.39 521.23 1193.74 520.75
  Q 1200.71 511.40 1212.80 513.16
  C 1220.19 514.24 1221.69 519.34 1221.15 526.29
  Q 1221.11 526.76 1220.64 526.76
  C 1207.03 526.71 1185.92 523.70 1179.94 540.42
  C 1176.44 550.20 1180.05 560.35 1189.26 565.26
  C 1198.86 570.38 1213.24 569.46 1220.79 560.83
  Q 1221.25 560.31 1221.25 561.00"
/>
<path stroke="#888888" vector-effect="non-scaling-stroke" d="
  M 711.86 535.21
  A 33.41 33.41 0.0 0 0 678.45 501.80
  A 33.41 33.41 0.0 0 0 645.04 535.21
  A 33.41 33.41 0.0 0 0 678.45 568.62
  A 33.41 33.41 0.0 0 0 711.86 535.21"
/>
<path stroke="#888888" vector-effect="non-scaling-stroke" d="
  M 843.68 561.04
  L 843.77 566.73
  Q 843.78 567.25 844.29 567.25
  L 856.49 567.25
  Q 857.00 567.25 857.00 566.74
  Q 857.00 548.28 857.01 529.80
  Q 857.02 519.97 855.52 515.84
  Q 851.70 505.34 839.25 502.76
  Q 820.33 498.84 806.93 512.42
  Q 806.60 512.75 806.95 513.07
  L 814.78 520.31
  Q 815.49 520.96 816.14 520.26
  Q 824.65 511.02 835.75 513.19
  C 843.10 514.62 843.72 519.73 843.57 526.24
  Q 843.55 526.79 843.01 526.78
  C 831.19 526.68 821.68 525.51 813.13 529.18
  C 803.87 533.16 799.78 541.80 801.45 551.78
  C 804.50 570.05 832.13 573.66 843.07 560.82
  Q 843.66 560.12 843.68 561.04"
/>
<path stroke="#888888" vector-effect="non-scaling-stroke" d="
  M 1295.22 551.00
  C 1284.09 563.77 1265.60 557.45 1261.22 541.99
  C 1256.38 524.93 1270.07 507.95 1288.33 514.42
  Q 1292.25 515.81 1295.21 519.64
  Q 1295.55 520.09 1295.96 519.70
  L 1304.36 511.91
  Q 1304.71 511.59 1304.38 511.25
  C 1290.50 497.04 1266.47 499.56 1254.53 513.88
  C 1243.24 527.42 1244.68 547.44 1257.32 559.48
  C 1269.69 571.26 1291.73 572.24 1304.51 559.34
  A 0.44 0.44 0.0 0 0 1304.50 558.71
  L 1296.08 550.95
  Q 1295.63 550.53 1295.22 551.00"
/>
<path stroke="#888888" vector-effect="non-scaling-stroke" d="
  M 756.37 557.68
  C 783.82 557.88 783.63 512.70 757.04 513.08
  C 730.25 513.47 731.31 557.50 756.37 557.68"
/>
<path stroke="#888888" vector-effect="non-scaling-stroke" d="
  M 1148.78 520.77
  C 1139.69 508.41 1120.44 511.37 1115.21 526.00
  C 1111.57 536.17 1114.05 549.34 1123.56 555.14
  C 1130.92 559.63 1140.41 557.97 1146.54 552.12
  C 1154.91 544.12 1155.43 529.82 1148.78 520.77"
/>
<path stroke="#888888" vector-effect="non-scaling-stroke" d="
  M 1196.92 555.86
  C 1202.04 558.32 1209.87 557.81 1215.01 555.55
  C 1222.67 552.18 1221.23 545.04 1221.28 538.32
  Q 1221.28 537.78 1220.75 537.78
  C 1214.17 537.68 1200.75 536.39 1195.54 540.54
  C 1190.92 544.21 1190.89 552.98 1196.92 555.86"
/>
<path stroke="#888888" vector-effect="non-scaling-stroke" d="
  M 678.4890 557.6100
  A 22.32 20.06 89.9 0 0 698.5100 535.2550
  A 22.32 20.06 89.9 0 0 678.4110 512.9700
  A 22.32 20.06 89.9 0 0 658.3900 535.3250
  A 22.32 20.06 89.9 0 0 678.4890 557.6100"
/>
<path stroke="#888888" vector-effect="non-scaling-stroke" d="
  M 814.78 549.43
  C 816.66 561.12 838.08 558.92 842.43 551.03
  C 844.19 547.85 843.51 542.27 843.50 538.46
  Q 843.49 537.97 843.00 537.93
  C 834.91 537.31 812.45 534.96 814.78 549.43"
/>
</g>
<path fill="#111111" d="
  M 0.00 0.00
  L 1630.00 0.00
  L 1630.00 1066.00
  L 0.00 1066.00
  L 0.00 0.00
  Z
  M 397.43 544.72
  A 0.24 0.24 0.0 0 1 397.82 545.00
  C 383.33 574.92 347.77 599.30 316.83 606.31
  A 0.71 0.71 0.0 0 0 316.77 607.67
  C 322.09 609.39 327.54 610.59 332.57 612.91
  C 338.70 615.72 358.19 626.18 364.19 624.65
  C 402.90 614.79 426.16 578.74 435.05 542.15
  Q 443.49 507.41 438.20 472.04
  Q 438.13 471.55 437.65 471.43
  Q 407.89 463.58 380.15 450.37
  C 375.19 448.01 368.94 444.14 363.16 441.34
  Q 362.67 441.10 362.21 441.38
  C 339.55 455.36 314.06 464.33 288.51 471.39
  Q 288.01 471.53 287.93 472.03
  Q 285.40 487.17 285.62 502.49
  Q 285.68 506.47 286.76 508.29
  C 296.64 524.89 355.98 488.43 366.23 481.19
  A 0.48 0.47 -85.4 0 1 366.84 481.91
  C 361.61 487.30 356.46 492.74 350.95 497.21
  C 331.37 513.13 301.32 531.40 276.95 531.71
  A 0.66 0.66 0.0 0 0 276.67 532.96
  Q 287.10 538.07 292.20 547.97
  Q 293.67 550.82 295.19 551.81
  C 303.22 556.99 324.34 546.17 332.29 542.05
  Q 373.46 520.72 408.29 490.09
  Q 409.05 489.42 408.55 490.30
  C 389.42 523.99 349.30 549.26 315.15 565.36
  Q 308.68 568.41 301.76 570.13
  C 298.63 570.92 294.93 571.01 291.58 571.54
  A 0.96 0.96 0.0 0 0 291.32 573.36
  Q 300.81 577.81 308.20 584.30
  Q 311.36 587.07 313.40 587.92
  C 332.94 596.12 383.85 558.68 397.43 544.72
  Z
  M 628.07 467.52
  A 0.27 0.27 0.0 0 0 627.80 467.25
  L 615.02 467.25
  A 0.27 0.27 0.0 0 0 614.75 467.52
  L 614.75 566.98
  A 0.27 0.27 0.0 0 0 615.02 567.25
  L 627.80 567.25
  A 0.27 0.27 0.0 0 0 628.07 566.98
  L 628.07 467.52
  Z
  M 888.0668 467.5318
  A 0.27 0.27 0.0 0 0 887.7973 467.2614
  L 874.8573 467.2388
  A 0.27 0.27 0.0 0 0 874.5868 467.5083
  L 874.4132 566.9682
  A 0.27 0.27 0.0 0 0 874.6827 567.2386
  L 887.6227 567.2612
  A 0.27 0.27 0.0 0 0 887.8932 566.9917
  L 888.0668 467.5318
  Z
  M 581.39 555.22
  A 0.36 0.36 0.0 0 1 582.00 555.48
  L 582.00 566.75
  Q 582.00 567.25 582.50 567.25
  L 595.59 567.25
  Q 596.18 567.25 596.19 566.66
  L 596.45 513.86
  Q 596.46 512.75 595.36 512.75
  L 557.25 512.75
  Q 556.75 512.75 556.75 513.25
  L 556.75 524.25
  A 0.50 0.50 0.0 0 0 557.25 524.75
  L 580.98 524.75
  Q 581.46 524.75 581.39 525.23
  C 579.41 537.91 571.50 550.98 558.68 554.87
  C 542.74 559.70 527.70 554.52 518.62 540.80
  C 503.14 517.41 515.04 481.33 546.19 480.66
  C 557.81 480.42 565.05 484.58 573.05 492.45
  Q 573.49 492.89 573.92 492.45
  L 582.54 483.83
  Q 582.89 483.48 582.55 483.13
  C 563.75 463.76 531.71 463.99 512.74 482.18
  C 482.17 511.49 499.95 566.10 543.40 568.39
  C 557.48 569.13 571.14 565.04 581.39 555.22
  Z
  M 740.42 507.73
  A 0.27 0.27 0.0 0 1 740.00 507.51
  L 740.00 470.50
  Q 740.00 469.75 739.25 469.75
  L 727.25 469.75
  Q 726.75 469.75 726.75 470.25
  L 726.75 566.75
  Q 726.75 567.25 727.25 567.25
  L 739.50 567.25
  Q 740.00 567.25 740.00 566.75
  L 740.00 563.02
  Q 740.00 562.18 740.69 562.66
  C 766.62 580.62 795.88 556.13 789.57 527.24
  C 784.62 504.57 759.48 494.52 740.42 507.73
  Z
  M 964.76 470.01
  A 0.26 0.26 0.0 0 0 964.50 469.75
  L 950.76 469.75
  A 0.26 0.26 0.0 0 0 950.50 470.01
  L 950.50 566.99
  A 0.26 0.26 0.0 0 0 950.76 567.25
  L 964.50 567.25
  A 0.26 0.26 0.0 0 0 964.76 566.99
  L 964.76 470.01
  Z
  M 1321.77 514.70
  Q 1321.85 528.74 1321.99 542.73
  Q 1322.07 550.82 1323.31 554.45
  C 1327.52 566.74 1339.58 571.01 1351.41 567.20
  Q 1351.99 567.01 1351.99 566.41
  L 1352.00 557.04
  Q 1352.00 556.42 1351.42 556.61
  C 1340.85 560.00 1335.18 552.74 1335.23 543.00
  Q 1335.30 528.70 1335.20 514.32
  A 0.32 0.32 0.0 0 1 1335.52 514.00
  L 1351.50 514.00
  Q 1352.00 514.00 1352.00 513.50
  L 1352.00 503.50
  Q 1352.00 503.00 1351.50 503.00
  L 1335.75 503.00
  Q 1335.25 503.00 1335.25 502.50
  L 1335.25 483.25
  Q 1335.25 482.75 1334.75 482.75
  L 1322.33 482.75
  Q 1321.90 482.75 1321.90 483.17
  L 1321.75 502.50
  Q 1321.75 503.00 1321.25 503.00
  L 1314.63 503.00
  Q 1314.00 503.00 1314.00 503.62
  L 1314.00 513.50
  Q 1314.00 514.00 1314.50 514.00
  L 1321.07 514.00
  Q 1321.77 514.00 1321.77 514.70
  Z
  M 1000.00 512.25
  L 1000.00 503.50
  Q 1000.00 503.00 999.50 503.00
  L 986.90 503.00
  A 0.41 0.40 90.0 0 0 986.50 503.41
  L 986.50 566.75
  Q 986.50 567.25 987.00 567.25
  L 999.49 567.25
  Q 1000.00 567.25 1000.00 566.73
  Q 999.99 549.16 1000.02 531.59
  C 1000.04 523.73 1003.05 515.55 1011.51 513.50
  C 1023.94 510.50 1031.32 516.36 1031.27 529.26
  Q 1031.19 547.95 1031.28 566.73
  Q 1031.28 567.25 1031.80 567.25
  L 1044.24 567.25
  Q 1044.76 567.25 1044.75 566.73
  Q 1044.74 552.02 1044.76 537.33
  C 1044.79 524.64 1046.11 513.29 1060.98 512.88
  C 1075.41 512.48 1076.00 523.48 1075.99 534.50
  Q 1075.99 550.61 1076.01 566.74
  Q 1076.01 567.25 1076.51 567.25
  L 1088.74 567.25
  Q 1089.27 567.25 1089.27 566.72
  Q 1089.31 547.26 1088.95 527.82
  Q 1088.83 521.63 1087.14 516.34
  C 1080.88 496.86 1050.46 497.02 1042.63 515.10
  Q 1042.39 515.65 1042.15 515.10
  Q 1037.42 504.14 1025.53 502.25
  C 1015.97 500.73 1005.30 503.35 1000.39 512.35
  Q 1000.00 513.05 1000.00 512.25
  Z
  M 1116.25 507.04
  L 1116.25 503.62
  Q 1116.25 503.00 1115.62 503.00
  L 1103.45 503.00
  Q 1102.97 503.00 1102.97 503.48
  L 1102.99 599.87
  Q 1102.99 600.50 1103.62 600.50
  L 1115.75 600.50
  Q 1116.25 600.50 1116.25 600.00
  L 1116.25 563.23
  Q 1116.25 562.44 1116.91 562.88
  Q 1128.05 570.30 1139.74 568.25
  C 1173.14 562.37 1176.54 514.68 1145.38 503.65
  Q 1131.08 498.59 1116.96 507.44
  Q 1116.25 507.88 1116.25 507.04
  Z
  M 1221.25 561.00
  L 1221.25 566.75
  Q 1221.25 567.25 1221.75 567.25
  L 1233.99 567.25
  Q 1234.50 567.25 1234.50 566.73
  Q 1234.49 546.47 1234.52 526.17
  C 1234.53 514.07 1229.74 505.42 1216.97 502.76
  Q 1198.15 498.83 1184.75 512.26
  Q 1184.27 512.75 1184.77 513.21
  L 1192.96 520.82
  Q 1193.39 521.23 1193.74 520.75
  Q 1200.71 511.40 1212.80 513.16
  C 1220.19 514.24 1221.69 519.34 1221.15 526.29
  Q 1221.11 526.76 1220.64 526.76
  C 1207.03 526.71 1185.92 523.70 1179.94 540.42
  C 1176.44 550.20 1180.05 560.35 1189.26 565.26
  C 1198.86 570.38 1213.24 569.46 1220.79 560.83
  Q 1221.25 560.31 1221.25 561.00
  Z
  M 711.86 535.21
  A 33.41 33.41 0.0 0 0 678.45 501.80
  A 33.41 33.41 0.0 0 0 645.04 535.21
  A 33.41 33.41 0.0 0 0 678.45 568.62
  A 33.41 33.41 0.0 0 0 711.86 535.21
  Z
  M 843.68 561.04
  L 843.77 566.73
  Q 843.78 567.25 844.29 567.25
  L 856.49 567.25
  Q 857.00 567.25 857.00 566.74
  Q 857.00 548.28 857.01 529.80
  Q 857.02 519.97 855.52 515.84
  Q 851.70 505.34 839.25 502.76
  Q 820.33 498.84 806.93 512.42
  Q 806.60 512.75 806.95 513.07
  L 814.78 520.31
  Q 815.49 520.96 816.14 520.26
  Q 824.65 511.02 835.75 513.19
  C 843.10 514.62 843.72 519.73 843.57 526.24
  Q 843.55 526.79 843.01 526.78
  C 831.19 526.68 821.68 525.51 813.13 529.18
  C 803.87 533.16 799.78 541.80 801.45 551.78
  C 804.50 570.05 832.13 573.66 843.07 560.82
  Q 843.66 560.12 843.68 561.04
  Z
  M 1295.22 551.00
  C 1284.09 563.77 1265.60 557.45 1261.22 541.99
  C 1256.38 524.93 1270.07 507.95 1288.33 514.42
  Q 1292.25 515.81 1295.21 519.64
  Q 1295.55 520.09 1295.96 519.70
  L 1304.36 511.91
  Q 1304.71 511.59 1304.38 511.25
  C 1290.50 497.04 1266.47 499.56 1254.53 513.88
  C 1243.24 527.42 1244.68 547.44 1257.32 559.48
  C 1269.69 571.26 1291.73 572.24 1304.51 559.34
  A 0.44 0.44 0.0 0 0 1304.50 558.71
  L 1296.08 550.95
  Q 1295.63 550.53 1295.22 551.00
  Z"
/>
<path fill="#ffffff" d="
  M 397.43 544.72
  C 383.85 558.68 332.94 596.12 313.40 587.92
  Q 311.36 587.07 308.20 584.30
  Q 300.81 577.81 291.32 573.36
  A 0.96 0.96 0.0 0 1 291.58 571.54
  C 294.93 571.01 298.63 570.92 301.76 570.13
  Q 308.68 568.41 315.15 565.36
  C 349.30 549.26 389.42 523.99 408.55 490.30
  Q 409.05 489.42 408.29 490.09
  Q 373.46 520.72 332.29 542.05
  C 324.34 546.17 303.22 556.99 295.19 551.81
  Q 293.67 550.82 292.20 547.97
  Q 287.10 538.07 276.67 532.96
  A 0.66 0.66 0.0 0 1 276.95 531.71
  C 301.32 531.40 331.37 513.13 350.95 497.21
  C 356.46 492.74 361.61 487.30 366.84 481.91
  A 0.48 0.47 -85.4 0 0 366.23 481.19
  C 355.98 488.43 296.64 524.89 286.76 508.29
  Q 285.68 506.47 285.62 502.49
  Q 285.40 487.17 287.93 472.03
  Q 288.01 471.53 288.51 471.39
  C 314.06 464.33 339.55 455.36 362.21 441.38
  Q 362.67 441.10 363.16 441.34
  C 368.94 444.14 375.19 448.01 380.15 450.37
  Q 407.89 463.58 437.65 471.43
  Q 438.13 471.55 438.20 472.04
  Q 443.49 507.41 435.05 542.15
  C 426.16 578.74 402.90 614.79 364.19 624.65
  C 358.19 626.18 338.70 615.72 332.57 612.91
  C 327.54 610.59 322.09 609.39 316.77 607.67
  A 0.71 0.71 0.0 0 1 316.83 606.31
  C 347.77 599.30 383.33 574.92 397.82 545.00
  A 0.24 0.24 0.0 0 0 397.43 544.72
  Z"
/>
<rect fill="#ffffff" x="614.75" y="467.25" width="13.32" height="100.00" rx="0.27"/>
<rect fill="#ffffff" x="-6.74" y="-50.00" transform="translate(881.24,517.25) rotate(0.1)" width="13.48" height="100.00" rx="0.27"/>
<path fill="#ffffff" d="
  M 581.39 555.22
  C 571.14 565.04 557.48 569.13 543.40 568.39
  C 499.95 566.10 482.17 511.49 512.74 482.18
  C 531.71 463.99 563.75 463.76 582.55 483.13
  Q 582.89 483.48 582.54 483.83
  L 573.92 492.45
  Q 573.49 492.89 573.05 492.45
  C 565.05 484.58 557.81 480.42 546.19 480.66
  C 515.04 481.33 503.14 517.41 518.62 540.80
  C 527.70 554.52 542.74 559.70 558.68 554.87
  C 571.50 550.98 579.41 537.91 581.39 525.23
  Q 581.46 524.75 580.98 524.75
  L 557.25 524.75
  A 0.50 0.50 0.0 0 1 556.75 524.25
  L 556.75 513.25
  Q 556.75 512.75 557.25 512.75
  L 595.36 512.75
  Q 596.46 512.75 596.45 513.86
  L 596.19 566.66
  Q 596.18 567.25 595.59 567.25
  L 582.50 567.25
  Q 582.00 567.25 582.00 566.75
  L 582.00 555.48
  A 0.36 0.36 0.0 0 0 581.39 555.22
  Z"
/>
<path fill="#ffffff" d="
  M 740.42 507.73
  C 759.48 494.52 784.62 504.57 789.57 527.24
  C 795.88 556.13 766.62 580.62 740.69 562.66
  Q 740.00 562.18 740.00 563.02
  L 740.00 566.75
  Q 740.00 567.25 739.50 567.25
  L 727.25 567.25
  Q 726.75 567.25 726.75 566.75
  L 726.75 470.25
  Q 726.75 469.75 727.25 469.75
  L 739.25 469.75
  Q 740.00 469.75 740.00 470.50
  L 740.00 507.51
  A 0.27 0.27 0.0 0 0 740.42 507.73
  Z
  M 756.37 557.68
  C 783.82 557.88 783.63 512.70 757.04 513.08
  C 730.25 513.47 731.31 557.50 756.37 557.68
  Z"
/>
<rect fill="#ffffff" x="950.50" y="469.75" width="14.26" height="97.50" rx="0.26"/>
<path fill="#ffffff" d="
  M 1321.07 514.00
  L 1314.50 514.00
  Q 1314.00 514.00 1314.00 513.50
  L 1314.00 503.62
  Q 1314.00 503.00 1314.63 503.00
  L 1321.25 503.00
  Q 1321.75 503.00 1321.75 502.50
  L 1321.90 483.17
  Q 1321.90 482.75 1322.33 482.75
  L 1334.75 482.75
  Q 1335.25 482.75 1335.25 483.25
  L 1335.25 502.50
  Q 1335.25 503.00 1335.75 503.00
  L 1351.50 503.00
  Q 1352.00 503.00 1352.00 503.50
  L 1352.00 513.50
  Q 1352.00 514.00 1351.50 514.00
  L 1335.52 514.00
  A 0.32 0.32 0.0 0 0 1335.20 514.32
  Q 1335.30 528.70 1335.23 543.00
  C 1335.18 552.74 1340.85 560.00 1351.42 556.61
  Q 1352.00 556.42 1352.00 557.04
  L 1351.99 566.41
  Q 1351.99 567.01 1351.41 567.20
  C 1339.58 571.01 1327.52 566.74 1323.31 554.45
  Q 1322.07 550.82 1321.99 542.73
  Q 1321.85 528.74 1321.77 514.70
  Q 1321.77 514.00 1321.07 514.00
  Z"
/>
<path fill="#ffffff" d="
  M 1000.39 512.35
  C 1005.30 503.35 1015.97 500.73 1025.53 502.25
  Q 1037.42 504.14 1042.15 515.10
  Q 1042.39 515.65 1042.63 515.10
  C 1050.46 497.02 1080.88 496.86 1087.14 516.34
  Q 1088.83 521.63 1088.95 527.82
  Q 1089.31 547.26 1089.27 566.72
  Q 1089.27 567.25 1088.74 567.25
  L 1076.51 567.25
  Q 1076.01 567.25 1076.01 566.74
  Q 1075.99 550.61 1075.99 534.50
  C 1076.00 523.48 1075.41 512.48 1060.98 512.88
  C 1046.11 513.29 1044.79 524.64 1044.76 537.33
  Q 1044.74 552.02 1044.75 566.73
  Q 1044.76 567.25 1044.24 567.25
  L 1031.80 567.25
  Q 1031.28 567.25 1031.28 566.73
  Q 1031.19 547.95 1031.27 529.26
  C 1031.32 516.36 1023.94 510.50 1011.51 513.50
  C 1003.05 515.55 1000.04 523.73 1000.02 531.59
  Q 999.99 549.16 1000.00 566.73
  Q 1000.00 567.25 999.49 567.25
  L 987.00 567.25
  Q 986.50 567.25 986.50 566.75
  L 986.50 503.41
  A 0.41 0.40 90.0 0 1 986.90 503.00
  L 999.50 503.00
  Q 1000.00 503.00 1000.00 503.50
  L 1000.00 512.25
  Q 1000.00 513.05 1000.39 512.35
  Z"
/>
<path fill="#ffffff" d="
  M 1116.96 507.44
  Q 1131.08 498.59 1145.38 503.65
  C 1176.54 514.68 1173.14 562.37 1139.74 568.25
  Q 1128.05 570.30 1116.91 562.88
  Q 1116.25 562.44 1116.25 563.23
  L 1116.25 600.00
  Q 1116.25 600.50 1115.75 600.50
  L 1103.62 600.50
  Q 1102.99 600.50 1102.99 599.87
  L 1102.97 503.48
  Q 1102.97 503.00 1103.45 503.00
  L 1115.62 503.00
  Q 1116.25 503.00 1116.25 503.62
  L 1116.25 507.04
  Q 1116.25 507.88 1116.96 507.44
  Z
  M 1148.78 520.77
  C 1139.69 508.41 1120.44 511.37 1115.21 526.00
  C 1111.57 536.17 1114.05 549.34 1123.56 555.14
  C 1130.92 559.63 1140.41 557.97 1146.54 552.12
  C 1154.91 544.12 1155.43 529.82 1148.78 520.77
  Z"
/>
<path fill="#ffffff" d="
  M 1220.79 560.83
  C 1213.24 569.46 1198.86 570.38 1189.26 565.26
  C 1180.05 560.35 1176.44 550.20 1179.94 540.42
  C 1185.92 523.70 1207.03 526.71 1220.64 526.76
  Q 1221.11 526.76 1221.15 526.29
  C 1221.69 519.34 1220.19 514.24 1212.80 513.16
  Q 1200.71 511.40 1193.74 520.75
  Q 1193.39 521.23 1192.96 520.82
  L 1184.77 513.21
  Q 1184.27 512.75 1184.75 512.26
  Q 1198.15 498.83 1216.97 502.76
  C 1229.74 505.42 1234.53 514.07 1234.52 526.17
  Q 1234.49 546.47 1234.50 566.73
  Q 1234.50 567.25 1233.99 567.25
  L 1221.75 567.25
  Q 1221.25 567.25 1221.25 566.75
  L 1221.25 561.00
  Q 1221.25 560.31 1220.79 560.83
  Z
  M 1196.92 555.86
  C 1202.04 558.32 1209.87 557.81 1215.01 555.55
  C 1222.67 552.18 1221.23 545.04 1221.28 538.32
  Q 1221.28 537.78 1220.75 537.78
  C 1214.17 537.68 1200.75 536.39 1195.54 540.54
  C 1190.92 544.21 1190.89 552.98 1196.92 555.86
  Z"
/>
<path fill="#ffffff" d="
  M 711.86 535.21
  A 33.41 33.41 0.0 0 1 678.45 568.62
  A 33.41 33.41 0.0 0 1 645.04 535.21
  A 33.41 33.41 0.0 0 1 678.45 501.80
  A 33.41 33.41 0.0 0 1 711.86 535.21
  Z
  M 678.4890 557.6100
  A 22.32 20.06 89.9 0 0 698.5100 535.2550
  A 22.32 20.06 89.9 0 0 678.4110 512.9700
  A 22.32 20.06 89.9 0 0 658.3900 535.3250
  A 22.32 20.06 89.9 0 0 678.4890 557.6100
  Z"
/>
<path fill="#ffffff" d="
  M 843.07 560.82
  C 832.13 573.66 804.50 570.05 801.45 551.78
  C 799.78 541.80 803.87 533.16 813.13 529.18
  C 821.68 525.51 831.19 526.68 843.01 526.78
  Q 843.55 526.79 843.57 526.24
  C 843.72 519.73 843.10 514.62 835.75 513.19
  Q 824.65 511.02 816.14 520.26
  Q 815.49 520.96 814.78 520.31
  L 806.95 513.07
  Q 806.60 512.75 806.93 512.42
  Q 820.33 498.84 839.25 502.76
  Q 851.70 505.34 855.52 515.84
  Q 857.02 519.97 857.01 529.80
  Q 857.00 548.28 857.00 566.74
  Q 857.00 567.25 856.49 567.25
  L 844.29 567.25
  Q 843.78 567.25 843.77 566.73
  L 843.68 561.04
  Q 843.66 560.12 843.07 560.82
  Z
  M 814.78 549.43
  C 816.66 561.12 838.08 558.92 842.43 551.03
  C 844.19 547.85 843.51 542.27 843.50 538.46
  Q 843.49 537.97 843.00 537.93
  C 834.91 537.31 812.45 534.96 814.78 549.43
  Z"
/>
<path fill="#ffffff" d="
  M 1261.22 541.99
  C 1265.60 557.45 1284.09 563.77 1295.22 551.00
  Q 1295.63 550.53 1296.08 550.95
  L 1304.50 558.71
  A 0.44 0.44 0.0 0 1 1304.51 559.34
  C 1291.73 572.24 1269.69 571.26 1257.32 559.48
  C 1244.68 547.44 1243.24 527.42 1254.53 513.88
  C 1266.47 499.56 1290.50 497.04 1304.38 511.25
  Q 1304.71 511.59 1304.36 511.91
  L 1295.96 519.70
  Q 1295.55 520.09 1295.21 519.64
  Q 1292.25 515.81 1288.33 514.42
  C 1270.07 507.95 1256.38 524.93 1261.22 541.99
  Z"
/>
<ellipse fill="#111111" cx="0.00" cy="0.00" transform="translate(678.45,535.29) rotate(89.9)" rx="22.32" ry="20.06"/>
<path fill="#111111" d="
  M 757.04 513.08
  C 783.63 512.70 783.82 557.88 756.37 557.68
  C 731.31 557.50 730.25 513.47 757.04 513.08
  Z"
/>
<path fill="#111111" d="
  M 1115.21 526.00
  C 1120.44 511.37 1139.69 508.41 1148.78 520.77
  C 1155.43 529.82 1154.91 544.12 1146.54 552.12
  C 1140.41 557.97 1130.92 559.63 1123.56 555.14
  C 1114.05 549.34 1111.57 536.17 1115.21 526.00
  Z"
/>
<path fill="#111111" d="
  M 842.43 551.03
  C 838.08 558.92 816.66 561.12 814.78 549.43
  C 812.45 534.96 834.91 537.31 843.00 537.93
  Q 843.49 537.97 843.50 538.46
  C 843.51 542.27 844.19 547.85 842.43 551.03
  Z"
/>
<path fill="#111111" d="
  M 1215.01 555.55
  C 1209.87 557.81 1202.04 558.32 1196.92 555.86
  C 1190.89 552.98 1190.92 544.21 1195.54 540.54
  C 1200.75 536.39 1214.17 537.68 1220.75 537.78
  Q 1221.28 537.78 1221.28 538.32
  C 1221.23 545.04 1222.67 552.18 1215.01 555.55
  Z"
/>
</svg>
