<svg width="610" height="532" viewBox="0 0 610 532" fill="none" xmlns="http://www.w3.org/2000/svg">
<g filter="url(#filter0_d_0_87)">
<path d="M110.312 124.135C110.312 101.417 128.729 83 151.447 83H342.719C365.437 83 383.854 101.417 383.854 124.135V207.187C385.866 207.187 387.497 208.818 387.497 210.83V255.868C387.497 257.88 385.866 259.511 383.854 259.511V603.521C383.854 626.24 365.437 644.657 342.719 644.657H151.447C128.729 644.657 110.312 626.24 110.312 603.521V283.024C108.494 283.024 107 281.551 107 279.733V241.939C107 240.121 108.494 238.648 110.312 238.648V230.369C108.494 230.369 107 228.895 107 227.078V187.959C107 186.141 108.494 184.668 110.312 184.668V124.135Z" fill="black"/>
</g>
<path d="M174.558 94.9218H144.09C132.385 94.9218 122.896 104.411 122.896 116.116V611.54C122.896 623.246 132.385 632.735 144.09 632.735H350.075C361.781 632.735 371.27 623.246 371.27 611.54V116.116C371.27 104.411 361.781 94.9218 350.075 94.9218H320.271V98.2335C320.271 105.549 314.34 111.48 307.024 111.48H187.804C180.488 111.48 174.558 105.549 174.558 98.2335V94.9218Z" fill="#222222"/>
<rect opacity="0.4" x="221.583" y="94.9222" width="56.9605" height="5.29865" rx="2.64932" fill="#CCCCCC"/>
<rect opacity="0.5" x="287.816" y="91.6104" width="11.922" height="11.922" rx="5.96098" fill="#DDDDDD"/>
<rect opacity="0.5" x="290.466" y="94.2599" width="6.62331" height="6.62331" rx="3.31166" fill="#222222"/>
<rect opacity="0.5" x="189.791" y="94.9222" width="5.29865" height="5.29865" rx="2.64932" fill="#CCCCCC"/>
<defs>
<filter id="filter0_d_0_87" x="0.0479012" y="0.729156" width="609.581" height="890.74" filterUnits="userSpaceOnUse" color-interpolation-filters="sRGB">
<feFlood flood-opacity="0" result="BackgroundImageFix"/>
<feColorMatrix in="SourceAlpha" type="matrix" values="0 0 0 0 0 0 0 0 0 0 0 0 0 0 0 0 0 0 127 0" result="hardAlpha"/>
<feOffset dx="57.5896" dy="82.2708"/>
<feGaussianBlur stdDeviation="82.2708"/>
<feColorMatrix type="matrix" values="0 0 0 0 0 0 0 0 0 0 0 0 0 0 0 0 0 0 0.17 0"/>
<feBlend mode="normal" in2="BackgroundImageFix" result="effect1_dropShadow_0_87"/>
<feBlend mode="normal" in="SourceGraphic" in2="effect1_dropShadow_0_87" result="shape"/>
</filter>
</defs>
</svg>
